# xmcd
#
# Track frame offsets:
#	150
#	15971
#	31980
#	49756
#	61918
#	76581
#	86355
#	102805
#	116434
#	129515
#	138692
#	156929
#	167441
#	179892
#	191538
#	206244
#	220560
#	231064
#	253326
#	265093
#	277183
#	291245
#	305955
#	319643
#
# Disc length: 4455 seconds
#
# Revision: 0
# Processed by: cddbd v1.5.1PL0 Copyright (c) Steve Scherf et al.
# Submitted via: dBpowerAMP V4.0
#
DISCID=58116518
DTITLE=Suveniir - Suveniiri meloodiad panflöödi registris
DYEAR=2004
DGENRE=Instrumental
TTITLE0=Valged roosid
TTITLE1=Tule tagasi sa..
TTITLE2=Laev tõstis purjed
TTITLE3=Elukee helmed
TTITLE4=Minu laulud
TTITLE5=Taka-taka
TTITLE6=Mustlase elu
TTITLE7=Mu mõtted
TTITLE8=Jaanuari hommik
TTITLE9=Kullakese silmad
TTITLE10=Lumevalss
TTITLE11=Valge unistuste hobu
TTITLE12=La cumparsita
TTITLE13=Ma tahaksin kodus olla
TTITLE14=Vana vokk
TTITLE15=Kodurand
TTITLE16=Jaanikuu
TTITLE17=Väike Tamara
TTITLE18=Detsembri õhtu
TTITLE19=Unetul ööl
TTITLE20=Suveöö
TTITLE21=Kesalilled
TTITLE22=Aloha oe
TTITLE23=Valse musette
EXTD=
EXTT0=
EXTT1=
EXTT2=
EXTT3=
EXTT4=
EXTT5=
EXTT6=
EXTT7=
EXTT8=
EXTT9=
EXTT10=
EXTT11=
EXTT12=
EXTT13=
EXTT14=
EXTT15=
EXTT16=
EXTT17=
EXTT18=
EXTT19=
EXTT20=
EXTT21=
EXTT22=
EXTT23=
PLAYORDER=
